<svg id="visual" viewBox="0 0 900 600" width="900" height="600" xmlns="http://www.w3.org/2000/svg" xmlns:xlink="http://www.w3.org/1999/xlink" version="1.1"><g stroke-width="1" stroke-linejoin="bevel"><path d="M420 267.1L497 329.9L489 253.1Z" fill="#081a28" stroke="#081a28"></path><path d="M497 329.9L520 325.9L489 253.1Z" fill="#0c2435" stroke="#0c2435"></path><path d="M420 267.1L375 385.6L497 329.9Z" fill="#246688" stroke="#246688"></path><path d="M350 301.9L375 385.6L420 267.1Z" fill="#00101c" stroke="#00101c"></path><path d="M497 329.9L592 384.9L520 325.9Z" fill="#00101c" stroke="#00101c"></path><path d="M375 385.6L426 434.6L497 329.9Z" fill="#19435d" stroke="#19435d"></path><path d="M520 325.9L580 209.4L489 253.1Z" fill="#297ea6" stroke="#297ea6"></path><path d="M413 140.4L334 216.4L420 267.1Z" fill="#0c2435" stroke="#0c2435"></path><path d="M329 212.1L334 216.4L413 140.4Z" fill="#00101c" stroke="#00101c"></path><path d="M420 267.1L334 216.4L350 301.9Z" fill="#277297" stroke="#277297"></path><path d="M334 216.4L308 302.9L350 301.9Z" fill="#246688" stroke="#246688"></path><path d="M350 301.9L308 302.9L375 385.6Z" fill="#112e42" stroke="#112e42"></path><path d="M413 140.4L420 267.1L489 253.1Z" fill="#00101c" stroke="#00101c"></path><path d="M334 216.4L275 211.1L308 302.9Z" fill="#277297" stroke="#277297"></path><path d="M525 473.3L592 384.9L497 329.9Z" fill="#19435d" stroke="#19435d"></path><path d="M520 325.9L667 276.1L580 209.4Z" fill="#19435d" stroke="#19435d"></path><path d="M580 209.4L413 140.4L489 253.1Z" fill="#297ea6" stroke="#297ea6"></path><path d="M426 434.6L525 473.3L497 329.9Z" fill="#19435d" stroke="#19435d"></path><path d="M426 434.6L491 491.3L525 473.3Z" fill="#205a7a" stroke="#205a7a"></path><path d="M710 210.1L606 157.4L580 209.4Z" fill="#1d4e6b" stroke="#1d4e6b"></path><path d="M580 209.4L606 157.4L413 140.4Z" fill="#246688" stroke="#246688"></path><path d="M290 149.4L275 211.1L329 212.1Z" fill="#15384f" stroke="#15384f"></path><path d="M329 212.1L275 211.1L334 216.4Z" fill="#0c2435" stroke="#0c2435"></path><path d="M592 384.9L667 276.1L520 325.9Z" fill="#00101c" stroke="#00101c"></path><path d="M375 385.6L360 478.3L426 434.6Z" fill="#19435d" stroke="#19435d"></path><path d="M426 434.6L360 478.3L491 491.3Z" fill="#081a28" stroke="#081a28"></path><path d="M236 469.6L360 478.3L375 385.6Z" fill="#246688" stroke="#246688"></path><path d="M214 428.6L375 385.6L308 302.9Z" fill="#277297" stroke="#277297"></path><path d="M525 473.3L581 472.6L592 384.9Z" fill="#19435d" stroke="#19435d"></path><path d="M592 384.9L728 393.9L667 276.1Z" fill="#00101c" stroke="#00101c"></path><path d="M588 484.3L581 472.6L525 473.3Z" fill="#081a28" stroke="#081a28"></path><path d="M331 107.7L290 149.4L329 212.1Z" fill="#0c2435" stroke="#0c2435"></path><path d="M587 600L588 484.3L525 473.3Z" fill="#277297" stroke="#277297"></path><path d="M581 472.6L625 456.6L592 384.9Z" fill="#0c2435" stroke="#0c2435"></path><path d="M446 56.7L331 107.7L413 140.4Z" fill="#15384f" stroke="#15384f"></path><path d="M413 140.4L331 107.7L329 212.1Z" fill="#112e42" stroke="#112e42"></path><path d="M588 484.3L625 456.6L581 472.6Z" fill="#205a7a" stroke="#205a7a"></path><path d="M489 43.7L446 56.7L413 140.4Z" fill="#297ea6" stroke="#297ea6"></path><path d="M606 157.4L489 43.7L413 140.4Z" fill="#297ea6" stroke="#297ea6"></path><path d="M781 301.1L710 210.1L667 276.1Z" fill="#112e42" stroke="#112e42"></path><path d="M667 276.1L710 210.1L580 209.4Z" fill="#0c2435" stroke="#0c2435"></path><path d="M639 44.7L512 0L489 43.7Z" fill="#1d4e6b" stroke="#1d4e6b"></path><path d="M132 279.1L185 336.9L136 241.1Z" fill="#246688" stroke="#246688"></path><path d="M275 211.1L185 336.9L308 302.9Z" fill="#0c2435" stroke="#0c2435"></path><path d="M185 336.9L214 428.6L308 302.9Z" fill="#0c2435" stroke="#0c2435"></path><path d="M710 210.1L709 158.4L606 157.4Z" fill="#112e42" stroke="#112e42"></path><path d="M261 68.7L213 157.4L290 149.4Z" fill="#277297" stroke="#277297"></path><path d="M290 149.4L213 157.4L275 211.1Z" fill="#0c2435" stroke="#0c2435"></path><path d="M261 68.7L290 149.4L331 107.7Z" fill="#246688" stroke="#246688"></path><path d="M702 466.6L728 393.9L625 456.6Z" fill="#112e42" stroke="#112e42"></path><path d="M625 456.6L728 393.9L592 384.9Z" fill="#1d4e6b" stroke="#1d4e6b"></path><path d="M844 174.4L713 98.7L709 158.4Z" fill="#246688" stroke="#246688"></path><path d="M214 428.6L236 469.6L375 385.6Z" fill="#15384f" stroke="#15384f"></path><path d="M360 478.3L483 600L491 491.3Z" fill="#0c2435" stroke="#0c2435"></path><path d="M489 43.7L461 0L446 56.7Z" fill="#112e42" stroke="#112e42"></path><path d="M446 56.7L404 0L331 107.7Z" fill="#297ea6" stroke="#297ea6"></path><path d="M512 0L461 0L489 43.7Z" fill="#112e42" stroke="#112e42"></path><path d="M731 555.3L702 466.6L625 456.6Z" fill="#19435d" stroke="#19435d"></path><path d="M639 44.7L489 43.7L606 157.4Z" fill="#297ea6" stroke="#297ea6"></path><path d="M461 0L404 0L446 56.7Z" fill="#00101c" stroke="#00101c"></path><path d="M255 0L261 68.7L331 107.7Z" fill="#081a28" stroke="#081a28"></path><path d="M348 600L483 600L360 478.3Z" fill="#19435d" stroke="#19435d"></path><path d="M491 491.3L587 600L525 473.3Z" fill="#297ea6" stroke="#297ea6"></path><path d="M588 484.3L731 555.3L625 456.6Z" fill="#246688" stroke="#246688"></path><path d="M713 98.7L639 44.7L606 157.4Z" fill="#112e42" stroke="#112e42"></path><path d="M709 158.4L713 98.7L606 157.4Z" fill="#19435d" stroke="#19435d"></path><path d="M844 174.4L709 158.4L710 210.1Z" fill="#081a28" stroke="#081a28"></path><path d="M780 378.9L781 301.1L728 393.9Z" fill="#081a28" stroke="#081a28"></path><path d="M728 393.9L781 301.1L667 276.1Z" fill="#277297" stroke="#277297"></path><path d="M214 428.6L229 515.3L236 469.6Z" fill="#297ea6" stroke="#297ea6"></path><path d="M236 469.6L229 515.3L360 478.3Z" fill="#277297" stroke="#277297"></path><path d="M218 552.3L229 515.3L122 421.6Z" fill="#0c2435" stroke="#0c2435"></path><path d="M319 600L348 600L360 478.3Z" fill="#081a28" stroke="#081a28"></path><path d="M132 279.1L134 320.9L185 336.9Z" fill="#19435d" stroke="#19435d"></path><path d="M185 336.9L122 421.6L214 428.6Z" fill="#00101c" stroke="#00101c"></path><path d="M792 426.6L780 378.9L728 393.9Z" fill="#00101c" stroke="#00101c"></path><path d="M136 241.1L275 211.1L213 157.4Z" fill="#277297" stroke="#277297"></path><path d="M136 241.1L185 336.9L275 211.1Z" fill="#1d4e6b" stroke="#1d4e6b"></path><path d="M170 125.7L136 241.1L213 157.4Z" fill="#205a7a" stroke="#205a7a"></path><path d="M483 600L587 600L491 491.3Z" fill="#112e42" stroke="#112e42"></path><path d="M702 466.6L792 426.6L728 393.9Z" fill="#112e42" stroke="#112e42"></path><path d="M587 600L592 600L588 484.3Z" fill="#112e42" stroke="#112e42"></path><path d="M229 515.3L319 600L360 478.3Z" fill="#112e42" stroke="#112e42"></path><path d="M261 68.7L170 125.7L213 157.4Z" fill="#246688" stroke="#246688"></path><path d="M721 0L629 0L639 44.7Z" fill="#19435d" stroke="#19435d"></path><path d="M639 44.7L629 0L512 0Z" fill="#277297" stroke="#277297"></path><path d="M122 421.6L229 515.3L214 428.6Z" fill="#112e42" stroke="#112e42"></path><path d="M229 515.3L218 552.3L319 600Z" fill="#246688" stroke="#246688"></path><path d="M773 559.3L792 426.6L702 466.6Z" fill="#1d4e6b" stroke="#1d4e6b"></path><path d="M780 378.9L900 301.9L781 301.1Z" fill="#246688" stroke="#246688"></path><path d="M404 0L255 0L331 107.7Z" fill="#277297" stroke="#277297"></path><path d="M261 68.7L174 0L170 125.7Z" fill="#19435d" stroke="#19435d"></path><path d="M0 329.9L122 421.6L134 320.9Z" fill="#205a7a" stroke="#205a7a"></path><path d="M134 320.9L122 421.6L185 336.9Z" fill="#15384f" stroke="#15384f"></path><path d="M592 600L731 555.3L588 484.3Z" fill="#112e42" stroke="#112e42"></path><path d="M828 0L721 0L713 98.7Z" fill="#1d4e6b" stroke="#1d4e6b"></path><path d="M713 98.7L721 0L639 44.7Z" fill="#1d4e6b" stroke="#1d4e6b"></path><path d="M0 246.1L0 329.9L132 279.1Z" fill="#00101c" stroke="#00101c"></path><path d="M132 279.1L0 329.9L134 320.9Z" fill="#246688" stroke="#246688"></path><path d="M170 125.7L82 166.4L136 241.1Z" fill="#00101c" stroke="#00101c"></path><path d="M105 73.7L82 166.4L170 125.7Z" fill="#205a7a" stroke="#205a7a"></path><path d="M900 274.1L844 174.4L781 301.1Z" fill="#00101c" stroke="#00101c"></path><path d="M781 301.1L844 174.4L710 210.1Z" fill="#15384f" stroke="#15384f"></path><path d="M770 600L773 559.3L731 555.3Z" fill="#205a7a" stroke="#205a7a"></path><path d="M731 555.3L773 559.3L702 466.6Z" fill="#15384f" stroke="#15384f"></path><path d="M900 424.6L900 301.9L780 378.9Z" fill="#297ea6" stroke="#297ea6"></path><path d="M255 0L174 0L261 68.7Z" fill="#00101c" stroke="#00101c"></path><path d="M174 0L105 73.7L170 125.7Z" fill="#277297" stroke="#277297"></path><path d="M592 600L770 600L731 555.3Z" fill="#0c2435" stroke="#0c2435"></path><path d="M900 424.6L780 378.9L792 426.6Z" fill="#081a28" stroke="#081a28"></path><path d="M900 424.6L792 426.6L900 540.3Z" fill="#246688" stroke="#246688"></path><path d="M900 301.9L900 274.1L781 301.1Z" fill="#246688" stroke="#246688"></path><path d="M770 600L779 600L773 559.3Z" fill="#081a28" stroke="#081a28"></path><path d="M50 518.3L139 600L218 552.3Z" fill="#15384f" stroke="#15384f"></path><path d="M218 552.3L139 600L319 600Z" fill="#1d4e6b" stroke="#1d4e6b"></path><path d="M50 518.3L218 552.3L122 421.6Z" fill="#081a28" stroke="#081a28"></path><path d="M900 540.3L792 426.6L773 559.3Z" fill="#00101c" stroke="#00101c"></path><path d="M900 137.4L861 71.7L844 174.4Z" fill="#277297" stroke="#277297"></path><path d="M844 174.4L861 71.7L713 98.7Z" fill="#19435d" stroke="#19435d"></path><path d="M174 0L109 0L105 73.7Z" fill="#112e42" stroke="#112e42"></path><path d="M0 174.4L0 246.1L82 166.4Z" fill="#00101c" stroke="#00101c"></path><path d="M0 246.1L136 241.1L82 166.4Z" fill="#1d4e6b" stroke="#1d4e6b"></path><path d="M0 246.1L132 279.1L136 241.1Z" fill="#1d4e6b" stroke="#1d4e6b"></path><path d="M0 174.4L82 166.4L0 63.7Z" fill="#081a28" stroke="#081a28"></path><path d="M900 274.1L900 137.4L844 174.4Z" fill="#112e42" stroke="#112e42"></path><path d="M0 438.6L50 518.3L122 421.6Z" fill="#19435d" stroke="#19435d"></path><path d="M861 71.7L828 0L713 98.7Z" fill="#15384f" stroke="#15384f"></path><path d="M900 0L828 0L861 71.7Z" fill="#0c2435" stroke="#0c2435"></path><path d="M0 63.7L82 166.4L105 73.7Z" fill="#15384f" stroke="#15384f"></path><path d="M900 137.4L900 96.7L861 71.7Z" fill="#19435d" stroke="#19435d"></path><path d="M0 329.9L0 438.6L122 421.6Z" fill="#297ea6" stroke="#297ea6"></path><path d="M50 518.3L84 600L139 600Z" fill="#081a28" stroke="#081a28"></path><path d="M0 600L84 600L50 518.3Z" fill="#15384f" stroke="#15384f"></path><path d="M0 438.6L0 478.3L50 518.3Z" fill="#277297" stroke="#277297"></path><path d="M900 600L900 540.3L773 559.3Z" fill="#112e42" stroke="#112e42"></path><path d="M109 0L0 63.7L105 73.7Z" fill="#297ea6" stroke="#297ea6"></path><path d="M900 96.7L900 0L861 71.7Z" fill="#081a28" stroke="#081a28"></path><path d="M779 600L900 600L773 559.3Z" fill="#205a7a" stroke="#205a7a"></path><path d="M109 0L0 0L0 63.7Z" fill="#1d4e6b" stroke="#1d4e6b"></path><path d="M0 478.3L0 600L50 518.3Z" fill="#297ea6" stroke="#297ea6"></path></g></svg>